<mxfile host="app.diagrams.net" modified="2024-03-09T14:14:12.620Z" agent="Mozilla/5.0 (Windows NT 10.0; Win64; x64) AppleWebKit/537.36 (KHTML, like Gecko) Chrome/122.0.0.0 Safari/537.36 Edg/122.0.0.0" etag="QDpwtwNg7kMyub8GIv-4" version="24.0.2" type="device">
  <diagram id="C5RBs43oDa-KdzZeNtuy" name="Page-1">
    <mxGraphModel dx="925" dy="594" grid="1" gridSize="10" guides="1" tooltips="1" connect="1" arrows="1" fold="1" page="1" pageScale="1" pageWidth="827" pageHeight="1169" math="0" shadow="0">
      <root>
        <mxCell id="WIyWlLk6GJQsqaUBKTNV-0" />
        <mxCell id="WIyWlLk6GJQsqaUBKTNV-1" parent="WIyWlLk6GJQsqaUBKTNV-0" />
        <mxCell id="PJJtRz34xqlm4Iur6Ua3-4" value="" style="edgeStyle=orthogonalEdgeStyle;rounded=0;orthogonalLoop=1;jettySize=auto;html=1;" edge="1" parent="WIyWlLk6GJQsqaUBKTNV-1" source="PJJtRz34xqlm4Iur6Ua3-0" target="PJJtRz34xqlm4Iur6Ua3-3">
          <mxGeometry relative="1" as="geometry" />
        </mxCell>
        <mxCell id="PJJtRz34xqlm4Iur6Ua3-0" value="FreeList&lt;div&gt;Начало&lt;/div&gt;" style="strokeWidth=2;html=1;shape=mxgraph.flowchart.terminator;whiteSpace=wrap;" vertex="1" parent="WIyWlLk6GJQsqaUBKTNV-1">
          <mxGeometry x="40" y="50" width="190" height="60" as="geometry" />
        </mxCell>
        <mxCell id="PJJtRz34xqlm4Iur6Ua3-1" value="" style="endArrow=none;dashed=1;html=1;rounded=0;exitX=1;exitY=0.5;exitDx=0;exitDy=0;exitPerimeter=0;" edge="1" parent="WIyWlLk6GJQsqaUBKTNV-1" source="PJJtRz34xqlm4Iur6Ua3-0" target="PJJtRz34xqlm4Iur6Ua3-2">
          <mxGeometry width="50" height="50" relative="1" as="geometry">
            <mxPoint x="290" y="190" as="sourcePoint" />
            <mxPoint x="320" y="80" as="targetPoint" />
          </mxGeometry>
        </mxCell>
        <mxCell id="PJJtRz34xqlm4Iur6Ua3-2" value="Значение переменной Head&lt;div&gt;передается из основного тела&lt;/div&gt;&lt;div&gt;программы&lt;/div&gt;" style="strokeWidth=2;html=1;shape=mxgraph.flowchart.annotation_1;align=left;pointerEvents=1;" vertex="1" parent="WIyWlLk6GJQsqaUBKTNV-1">
          <mxGeometry x="300" y="50" width="25" height="60" as="geometry" />
        </mxCell>
        <mxCell id="PJJtRz34xqlm4Iur6Ua3-8" style="edgeStyle=orthogonalEdgeStyle;rounded=0;orthogonalLoop=1;jettySize=auto;html=1;" edge="1" parent="WIyWlLk6GJQsqaUBKTNV-1" source="PJJtRz34xqlm4Iur6Ua3-3" target="PJJtRz34xqlm4Iur6Ua3-5">
          <mxGeometry relative="1" as="geometry" />
        </mxCell>
        <mxCell id="PJJtRz34xqlm4Iur6Ua3-20" style="edgeStyle=orthogonalEdgeStyle;rounded=0;orthogonalLoop=1;jettySize=auto;html=1;" edge="1" parent="WIyWlLk6GJQsqaUBKTNV-1" source="PJJtRz34xqlm4Iur6Ua3-3" target="PJJtRz34xqlm4Iur6Ua3-18">
          <mxGeometry relative="1" as="geometry" />
        </mxCell>
        <mxCell id="PJJtRz34xqlm4Iur6Ua3-3" value="Head = nil" style="rhombus;whiteSpace=wrap;html=1;" vertex="1" parent="WIyWlLk6GJQsqaUBKTNV-1">
          <mxGeometry x="40" y="140" width="190" height="60" as="geometry" />
        </mxCell>
        <mxCell id="PJJtRz34xqlm4Iur6Ua3-10" value="" style="edgeStyle=orthogonalEdgeStyle;rounded=0;orthogonalLoop=1;jettySize=auto;html=1;" edge="1" parent="WIyWlLk6GJQsqaUBKTNV-1" source="PJJtRz34xqlm4Iur6Ua3-5" target="PJJtRz34xqlm4Iur6Ua3-9">
          <mxGeometry relative="1" as="geometry" />
        </mxCell>
        <mxCell id="PJJtRz34xqlm4Iur6Ua3-5" value="Current = Head" style="rounded=0;whiteSpace=wrap;html=1;" vertex="1" parent="WIyWlLk6GJQsqaUBKTNV-1">
          <mxGeometry x="260" y="210" width="190" height="60" as="geometry" />
        </mxCell>
        <mxCell id="PJJtRz34xqlm4Iur6Ua3-12" style="edgeStyle=orthogonalEdgeStyle;rounded=0;orthogonalLoop=1;jettySize=auto;html=1;entryX=0.5;entryY=0;entryDx=0;entryDy=0;" edge="1" parent="WIyWlLk6GJQsqaUBKTNV-1" source="PJJtRz34xqlm4Iur6Ua3-7" target="PJJtRz34xqlm4Iur6Ua3-9">
          <mxGeometry relative="1" as="geometry">
            <Array as="points">
              <mxPoint x="490" y="420" />
              <mxPoint x="490" y="290" />
              <mxPoint x="355" y="290" />
            </Array>
          </mxGeometry>
        </mxCell>
        <mxCell id="PJJtRz34xqlm4Iur6Ua3-16" value="" style="edgeStyle=orthogonalEdgeStyle;rounded=0;orthogonalLoop=1;jettySize=auto;html=1;" edge="1" parent="WIyWlLk6GJQsqaUBKTNV-1" source="PJJtRz34xqlm4Iur6Ua3-7" target="PJJtRz34xqlm4Iur6Ua3-15">
          <mxGeometry relative="1" as="geometry" />
        </mxCell>
        <mxCell id="PJJtRz34xqlm4Iur6Ua3-7" value="Current = Head" style="rhombus;whiteSpace=wrap;html=1;" vertex="1" parent="WIyWlLk6GJQsqaUBKTNV-1">
          <mxGeometry x="260" y="390" width="190" height="60" as="geometry" />
        </mxCell>
        <mxCell id="PJJtRz34xqlm4Iur6Ua3-11" value="" style="edgeStyle=orthogonalEdgeStyle;rounded=0;orthogonalLoop=1;jettySize=auto;html=1;" edge="1" parent="WIyWlLk6GJQsqaUBKTNV-1" source="PJJtRz34xqlm4Iur6Ua3-9" target="PJJtRz34xqlm4Iur6Ua3-7">
          <mxGeometry relative="1" as="geometry" />
        </mxCell>
        <mxCell id="PJJtRz34xqlm4Iur6Ua3-9" value="&lt;div&gt;Temp = Current&lt;/div&gt;&lt;div&gt;&amp;nbsp; &amp;nbsp; &amp;nbsp; Current = Current^.Next&lt;/div&gt;&lt;div&gt;&lt;span style=&quot;background-color: initial;&quot;&gt;Dispose(Temp)&lt;/span&gt;&lt;/div&gt;" style="rounded=0;whiteSpace=wrap;html=1;" vertex="1" parent="WIyWlLk6GJQsqaUBKTNV-1">
          <mxGeometry x="260" y="310" width="190" height="60" as="geometry" />
        </mxCell>
        <mxCell id="PJJtRz34xqlm4Iur6Ua3-13" value="Нет" style="text;html=1;align=center;verticalAlign=middle;whiteSpace=wrap;rounded=0;" vertex="1" parent="WIyWlLk6GJQsqaUBKTNV-1">
          <mxGeometry x="210" y="140" width="60" height="30" as="geometry" />
        </mxCell>
        <mxCell id="PJJtRz34xqlm4Iur6Ua3-14" value="Нет" style="text;html=1;align=center;verticalAlign=middle;whiteSpace=wrap;rounded=0;" vertex="1" parent="WIyWlLk6GJQsqaUBKTNV-1">
          <mxGeometry x="420" y="390" width="60" height="30" as="geometry" />
        </mxCell>
        <mxCell id="PJJtRz34xqlm4Iur6Ua3-15" value="Head = nil" style="rounded=0;whiteSpace=wrap;html=1;" vertex="1" parent="WIyWlLk6GJQsqaUBKTNV-1">
          <mxGeometry x="260" y="470" width="190" height="60" as="geometry" />
        </mxCell>
        <mxCell id="PJJtRz34xqlm4Iur6Ua3-17" value="Да" style="text;html=1;align=center;verticalAlign=middle;whiteSpace=wrap;rounded=0;" vertex="1" parent="WIyWlLk6GJQsqaUBKTNV-1">
          <mxGeometry x="300" y="440" width="60" height="30" as="geometry" />
        </mxCell>
        <mxCell id="PJJtRz34xqlm4Iur6Ua3-18" value="FreeList&lt;div&gt;Конец&lt;/div&gt;" style="strokeWidth=2;html=1;shape=mxgraph.flowchart.terminator;whiteSpace=wrap;" vertex="1" parent="WIyWlLk6GJQsqaUBKTNV-1">
          <mxGeometry x="40" y="580" width="190" height="60" as="geometry" />
        </mxCell>
        <mxCell id="PJJtRz34xqlm4Iur6Ua3-19" style="edgeStyle=orthogonalEdgeStyle;rounded=0;orthogonalLoop=1;jettySize=auto;html=1;entryX=0.5;entryY=0;entryDx=0;entryDy=0;entryPerimeter=0;" edge="1" parent="WIyWlLk6GJQsqaUBKTNV-1" source="PJJtRz34xqlm4Iur6Ua3-15" target="PJJtRz34xqlm4Iur6Ua3-18">
          <mxGeometry relative="1" as="geometry">
            <Array as="points">
              <mxPoint x="355" y="560" />
              <mxPoint x="135" y="560" />
            </Array>
          </mxGeometry>
        </mxCell>
        <mxCell id="PJJtRz34xqlm4Iur6Ua3-21" value="Да" style="text;html=1;align=center;verticalAlign=middle;whiteSpace=wrap;rounded=0;" vertex="1" parent="WIyWlLk6GJQsqaUBKTNV-1">
          <mxGeometry x="80" y="200" width="60" height="30" as="geometry" />
        </mxCell>
      </root>
    </mxGraphModel>
  </diagram>
</mxfile>
